<svg width="240" height="156" viewBox="0 0 240 156" fill="none" xmlns="http://www.w3.org/2000/svg">
<path d="M64.5122 14.4184C62.7239 7.07708 68.284 0 75.84 0C81.2163 0 85.8955 3.67622 87.1679 8.89973L119.488 141.582C121.276 148.923 115.716 156 108.16 156C102.784 156 98.1045 152.324 96.8321 147.1L64.5122 14.4184Z" fill="white"/>
<path d="M3.51218 14.4184C1.7239 7.07708 7.28402 0 14.84 0C20.2163 0 24.8955 3.67622 26.1679 8.89973L58.4878 141.582C60.2761 148.923 54.716 156 47.16 156C41.7837 156 37.1045 152.324 35.8321 147.1L3.51218 14.4184Z" fill="white"/>
<path d="M212.833 0C227.745 7.57646e-05 239.833 12.0884 239.833 27V129C239.833 143.912 227.745 156 212.833 156H145C138.372 156 133 150.627 133 144C133 137.709 137.84 132.549 144 132.041V132H200.833C209.117 132 215.833 125.284 215.833 117V39C215.833 30.7158 209.117 24.0001 200.833 24H154L145.648 74.1094C144.697 79.8169 139.759 84 133.973 84C126.658 84 121.094 77.4325 122.297 70.2178L132.351 9.89062C133.303 4.18318 138.241 0 144.027 0C144.41 8.27328e-06 144.787 0.0186597 145.159 0.0537109C145.713 0.0194021 146.271 0 146.833 0H212.833Z" fill="white"/>
</svg>
